<svg xmlns="http://www.w3.org/2000/svg" width="32" height="32" version="1"><path style="text-indent:0;text-align:start;line-height:normal;text-transform:none;block-progression:tb;marker:none;-inkscape-font-specification:Sans" d="M16 0C7.163 0 0 7.155 0 16c0 8.815 7.163 16 16 16s16-7.185 16-16c0-8.845-7.163-16-16-16zm0 1c8.297 0 15 6.694 15 15 0 8.274-6.703 15-15 15S1 24.274 1 16C1 7.694 7.703 1 16 1zm.063 12.281c-.742 0-1.459.294-1.938.781-.455 0-.89.185-1.219.438-.025.025-.062.037-.062.063l-.063.062s-.031.006-.031.031c-.05.05-.074.106-.125.156-.05.051-.074.137-.125.188h-.031a1.922 1.922 0 0 0-.281 1c0 .303.086.591.187.844l.063.156c.025.025.037.069.062.094.05.076.106.105.156.156.05.05.106.137.156.188l.032.03c.05.051.105.075.156.126l.031.031a1.94 1.94 0 0 0 1.063.313c.025 0 .037-.006.062-.032a2.673 2.673 0 0 0 1.938.813c.732 0 1.432-.302 1.937-.782.354-.025.66-.135.938-.312l.031-.031.031-.032c.05-.05.137-.074.188-.125.076-.05.105-.136.156-.187.05-.076.106-.112.156-.188.026-.05.069-.105.094-.156 0-.025.031-.037.031-.062.127-.253.219-.541.219-.844 0-.455-.154-.86-.406-1.188a.678.678 0 0 1-.125-.156.678.678 0 0 0-.157-.125c-.025-.025-.03-.006-.03-.031h-.032a1.96 1.96 0 0 0-1.063-.406c-.58-.505-1.242-.813-2-.813zm0 .656c1.136 0 2.062.933 2.062 2.094a2.05 2.05 0 0 1-2.063 2.063c-1.136 0-2.093-.926-2.093-2.063 0-1.136.932-2.093 2.094-2.093zm0 .282A1.78 1.78 0 0 0 14.28 16a1.78 1.78 0 0 0 1.781 1.781c.985 0 1.75-.796 1.75-1.781a1.738 1.738 0 0 0-1.75-1.781zm-.094.531c.019-.006.05 0 .062 0 .076-.025.131.018.157.094l.28.719.782.03c.126 0 .164.206.063.282l-.594.469.187.75c.026.126-.117.207-.218.156l-.657-.406-.656.406c-.101.076-.244-.03-.219-.156l.188-.75-.594-.469c-.101-.076-.039-.281.063-.281l.78-.031.282-.72c0-.024.037-.062.063-.062.012-.025.012-.025.03-.031zm-3.906.281c-.177.025-.416.069-.72.094-.605.076-1.341.174-2.124.25-1.566.177-3.063.375-3.063.375-.076 0-.156.08-.156.156s.08.156.156.156L12 16.75a2.054 2.054 0 0 1-.156-.781c.025-.303.092-.635.219-.938zm7.812 0c.126.303.219.615.219.969 0 .278-.05.529-.125.781l5.875-.718c.076 0 .156-.05.156-.125 0-.076-.08-.157-.156-.157 0 0-1.522-.198-3.063-.375-.757-.1-1.519-.2-2.125-.25-.328-.05-.579-.1-.781-.125zm-3.813.25-.218.469c-.025.05-.075.094-.125.094l-.469.031.344.281c.05.026.088.106.062.157l-.125.437.406-.25a.17.17 0 0 1 .157 0l.406.281-.125-.468c-.025-.051.012-.131.063-.157l.375-.281-.47-.031c-.05 0-.155-.043-.155-.094l-.125-.469z" color="#000" font-family="Sans" font-weight="400" overflow="visible"/></svg>